<?xml version="1.0" standalone="no"?>
<!DOCTYPE svg PUBLIC "-//W3C//DTD SVG 20010904//EN"
 "http://www.w3.org/TR/2001/REC-SVG-20010904/DTD/svg10.dtd">
<svg version="1.0" xmlns="http://www.w3.org/2000/svg"
 width="554.000000pt" height="522.000000pt" viewBox="0 0 554.000000 522.000000"
 preserveAspectRatio="xMidYMid meet">

<g transform="translate(0.000000,522.000000) scale(0.100000,-0.100000)"
fill="#000000" stroke="none">
<path d="M2685 4326 c-239 -38 -466 -205 -569 -418 -76 -155 -88 -219 -94
-470 l-4 -218 -28 0 c-15 0 -71 -11 -124 -25 -236 -59 -412 -228 -502 -480
l-29 -80 -3 -316 -3 -317 -37 -6 c-20 -3 -62 -6 -93 -6 -84 0 -102 -18 -107
-109 -3 -55 -8 -71 -19 -71 -29 0 -81 -41 -92 -72 -7 -19 -11 -132 -11 -299
l0 -267 25 -31 c15 -16 41 -36 59 -42 33 -12 34 -14 38 -77 4 -56 8 -68 32
-89 26 -22 34 -23 133 -21 101 3 107 4 126 30 13 18 21 48 25 96 l5 70 34 -14
c47 -20 1435 -16 1455 4 22 22 31 13 24 -27 -8 -53 8 -129 30 -146 14 -10 50
-14 127 -15 101 0 109 1 132 25 22 21 25 33 25 90 0 57 2 65 19 65 10 0 30 9
45 21 54 42 56 56 56 346 0 248 -2 270 -19 297 -21 32 -56 55 -82 56 -13 0
-18 13 -21 65 -6 95 -22 109 -141 115 l-92 5 -2 293 c0 165 -6 323 -13 360 -7
42 -30 106 -60 169 -42 86 -63 115 -133 185 -119 121 -268 195 -429 214 l-58
6 0 208 c0 223 10 280 65 375 33 57 141 158 205 190 105 53 116 54 545 57 361
2 406 0 460 -16 88 -27 152 -62 211 -118 70 -66 111 -132 139 -222 l23 -75 0
-1075 0 -1075 -46 -3 -47 -3 -65 -127 -65 -128 -122 0 -123 0 0 -150 0 -150
615 0 616 0 -3 147 -3 148 -125 3 -125 3 -49 129 -49 130 -62 0 -61 0 -1 1094
c-1 1080 -2 1095 -22 1178 -71 276 -302 503 -585 573 -92 22 -825 31 -951 11z
m913 -81 c101 -21 156 -44 254 -107 136 -89 229 -215 289 -393 l24 -70 2
-1107 2 -1108 -68 0 -69 0 -1 1094 c-1 1080 -2 1095 -22 1157 -26 77 -40 106
-87 173 -81 115 -212 203 -347 231 -101 21 -760 21 -870 0 -119 -23 -216 -75
-307 -167 -93 -93 -122 -141 -148 -243 -19 -73 -20 -111 -20 -560 0 -477 0
-482 21 -501 75 -68 63 -181 -23 -225 -72 -37 -145 -12 -184 63 -23 44 -17 82
21 138 l35 52 0 469 c0 501 4 547 52 678 75 202 286 377 512 426 92 20 839 20
934 0z m-1576 -1245 c-4 -133 -4 -135 -30 -154 -15 -11 -53 -45 -84 -77 -48
-48 -60 -68 -79 -129 -52 -172 25 -346 187 -426 53 -26 69 -29 154 -29 120 1
177 24 250 101 67 71 92 129 97 229 4 66 1 90 -17 138 -29 77 -74 134 -138
177 l-52 34 0 138 0 138 38 0 c57 0 155 -27 224 -60 152 -75 270 -212 325
-379 l28 -86 0 -697 0 -696 -24 -26 c-14 -15 -41 -30 -60 -35 -59 -13 -1352
-7 -1379 8 -56 30 -54 1 -53 745 1 760 0 746 67 883 29 60 56 96 119 158 44
44 105 93 135 109 82 44 187 76 245 73 l50 -2 -3 -135z m5 -270 c0 -22 -6 -45
-14 -52 -62 -51 -72 -197 -17 -265 63 -80 179 -106 270 -62 75 36 128 145 109
227 -3 16 -20 51 -36 77 -22 35 -29 57 -27 84 l3 36 42 -38 c61 -56 83 -110
83 -207 0 -98 -18 -139 -86 -199 -59 -52 -132 -75 -219 -69 -53 3 -72 10 -115
40 -90 63 -130 136 -130 239 0 71 28 141 78 192 46 48 59 47 59 -3z m-697
-1258 c0 -514 3 -492 -80 -492 -88 0 -80 -43 -80 458 0 517 -7 482 97 482 l63
0 0 -448z m1822 426 c9 -17 13 -131 16 -451 4 -492 9 -467 -81 -467 -92 0 -87
-27 -87 449 0 229 3 433 6 454 l7 37 63 0 c55 0 65 -3 76 -22z m-2062 -448 c0
-154 -3 -280 -7 -280 -34 1 -36 15 -34 280 1 145 4 267 7 271 3 5 12 9 20 9
12 0 14 -43 14 -280z m2198 -4 c3 -223 1 -254 -13 -266 -14 -12 -18 -11 -26 1
-10 16 -12 432 -3 503 6 44 8 46 23 31 14 -13 16 -52 19 -269z m1063 -139 l36
-92 -280 -3 c-154 -1 -282 -1 -284 2 -2 2 17 45 42 95 l46 91 202 0 202 0 36
-93z m289 -252 l0 -75 -540 0 -540 0 0 75 0 75 313 2 c171 2 414 2 540 0 l227
-3 0 -74z"/>
<path d="M1790 1880 l0 -40 375 0 375 0 0 40 0 40 -375 0 -375 0 0 -40z"/>
<path d="M1808 1733 c-13 -3 -18 -15 -18 -39 l0 -34 375 0 375 0 0 38 0 37
-357 2 c-197 1 -366 -1 -375 -4z"/>
<path d="M1796 1553 c-3 -3 -6 -21 -6 -40 l0 -33 375 0 375 0 0 35 c0 19 -1
35 -2 36 -12 5 -737 7 -742 2z"/>
</g>
</svg>
