<?xml version="1.0" standalone="no"?>
<!DOCTYPE svg PUBLIC "-//W3C//DTD SVG 20010904//EN"
 "http://www.w3.org/TR/2001/REC-SVG-20010904/DTD/svg10.dtd">
<svg version="1.0" xmlns="http://www.w3.org/2000/svg"
 width="290.000000pt" height="174.000000pt" viewBox="0 0 290.000000 174.000000"
 preserveAspectRatio="xMidYMid meet">

<g transform="translate(0.000000,174.000000) scale(0.100000,-0.100000)"
fill="#000000" stroke="none">
<path d="M1114 1571 c-53 -9 -123 -51 -154 -93 -14 -18 -40 -87 -60 -158 l-36
-125 -69 -1 c-111 -2 -114 -3 -135 -24 -16 -16 -20 -33 -20 -84 0 -58 3 -67
26 -85 15 -12 34 -21 44 -21 16 0 16 -3 -1 -52 -15 -44 -18 -86 -19 -249 0
-193 0 -197 25 -233 21 -31 25 -49 25 -106 0 -38 4 -80 10 -94 l10 -26 -79 0
c-58 0 -82 -4 -91 -15 -10 -12 -10 -18 0 -30 11 -13 119 -15 860 -15 741 0
849 2 860 15 10 12 10 18 0 30 -9 11 -33 15 -91 15 l-79 0 10 26 c6 14 10 56
10 94 0 57 4 75 25 106 25 36 25 40 25 233 -1 163 -4 205 -19 249 -17 49 -17
52 -1 52 10 0 29 9 44 21 23 18 26 28 26 80 0 33 -5 69 -10 79 -12 23 -82 44
-116 36 -13 -4 -41 -3 -63 0 l-38 6 -33 118 c-37 139 -65 183 -142 226 l-53
29 -325 2 c-179 0 -343 -2 -366 -6z m712 -67 c49 -24 90 -75 107 -136 8 -29
27 -95 41 -147 15 -51 36 -107 47 -122 l21 -29 -44 -20 c-65 -30 -81 -26 -102
20 -20 47 -54 76 -107 92 -72 21 -165 -26 -191 -97 l-12 -35 -321 0 c-296 0
-323 2 -363 20 l-44 20 21 29 c11 15 32 71 47 122 14 52 33 118 41 147 17 60
62 118 108 138 23 10 112 13 373 14 296 0 349 -2 378 -16z m-993 -377 c-4 -7
-21 -32 -38 -55 -27 -37 -34 -42 -65 -40 -33 3 -35 5 -38 42 -5 62 -1 66 78
66 56 0 69 -3 63 -13z m1372 -42 c0 -50 0 -50 -35 -53 -31 -2 -38 3 -65 40
-53 73 -54 69 27 66 l73 -3 0 -50z m-382 -3 c48 -45 38 -52 -73 -52 -111 0
-124 9 -74 55 44 41 100 40 147 -3z m-375 -102 c511 0 524 0 573 21 59 26 70
20 105 -56 38 -80 38 -80 -83 -99 -60 -10 -123 -22 -141 -28 -62 -19 -93 -107
-52 -148 18 -18 33 -20 166 -20 l146 0 -3 -85 c-3 -72 -7 -88 -27 -107 l-23
-23 -660 0 -661 0 -24 28 c-21 25 -24 38 -24 108 l0 79 145 0 c132 0 147 2
165 20 41 41 10 129 -52 148 -18 6 -81 18 -140 28 -77 12 -108 21 -108 31 0
20 28 83 52 119 l22 31 50 -23 51 -24 523 0z m-578 -189 c92 -15 118 -23 132
-41 10 -12 18 -26 18 -31 0 -5 -63 -9 -140 -9 l-140 0 0 50 c0 28 3 50 8 50 4
0 59 -9 122 -19z m1290 -31 l0 -50 -140 0 c-77 0 -140 4 -140 9 0 5 8 19 18
31 14 18 40 26 123 40 151 25 139 28 139 -30z m-1200 -441 c0 -88 -9 -99 -78
-99 -32 0 -63 5 -70 12 -7 7 -12 40 -12 80 l0 68 80 0 80 0 0 -61z m932 -19
l3 -80 -445 0 -445 0 3 80 4 80 438 0 438 0 4 -80z m208 12 c0 -40 -5 -73 -12
-80 -7 -7 -38 -12 -70 -12 -69 0 -78 11 -78 99 l0 61 80 0 80 0 0 -68z"/>
<path d="M1374 1395 c-11 -27 7 -35 75 -35 68 0 94 11 84 36 -8 20 -151 20
-159 -1z"/>
<path d="M1157 754 c-13 -14 -7 -81 8 -94 24 -20 37 1 33 51 -3 42 -22 62 -41
43z"/>
<path d="M1297 754 c-13 -13 -8 -92 6 -97 26 -10 38 9 35 54 -3 42 -22 62 -41
43z"/>
<path d="M1426 744 c-20 -51 8 -110 39 -84 28 23 16 100 -15 100 -10 0 -21 -7
-24 -16z"/>
<path d="M1567 754 c-13 -13 -8 -92 6 -97 26 -10 38 9 35 54 -3 42 -22 62 -41
43z"/>
<path d="M1707 754 c-11 -11 -8 -92 3 -99 22 -13 41 17 38 59 -3 39 -23 58
-41 40z"/>
<path d="M807 594 c-13 -14 -7 -43 11 -48 13 -3 82 -2 135 3 5 1 7 11 5 24 -3
20 -9 22 -73 25 -39 1 -74 0 -78 -4z"/>
<path d="M1019 584 c-30 -36 2 -39 434 -39 432 0 458 3 427 40 -11 13 -66 15
-430 15 -371 0 -419 -2 -431 -16z"/>
<path d="M1947 593 c-4 -3 -7 -14 -7 -23 0 -22 42 -31 110 -23 55 6 68 16 50
38 -13 15 -140 22 -153 8z"/>
</g>
</svg>
