<?xml version="1.0" standalone="no"?>
<!DOCTYPE svg PUBLIC "-//W3C//DTD SVG 20010904//EN"
 "http://www.w3.org/TR/2001/REC-SVG-20010904/DTD/svg10.dtd">
<svg version="1.0" xmlns="http://www.w3.org/2000/svg"
 width="1200.000000pt" height="1200.000000pt" viewBox="0 0 1200.000000 1200.000000"
 preserveAspectRatio="xMidYMid meet">

<g transform="translate(0.000000,1200.000000) scale(0.100000,-0.100000)"
fill="#000000" stroke="none">
<path d="M6136 9699 l-26 -20 0 -1018 0 -1018 23 -21 c23 -22 28 -22 350 -22
l327 0 0 -210 0 -210 -700 0 -700 0 -2 1126 -3 1126 -24 19 c-22 18 -44 19
-386 19 -342 0 -364 -1 -386 -19 l-24 -19 -3 -1126 -2 -1126 -360 0 -360 0 0
304 c0 292 -1 304 -21 330 l-20 26 -205 0 -204 0 0 260 0 260 190 0 c206 0
242 7 254 52 3 13 6 175 6 361 l0 338 -25 24 -24 25 -834 0 c-829 0 -834 0
-861 -21 l-26 -20 0 -310 0 -309 -204 0 -205 0 -20 -29 c-20 -28 -21 -41 -21
-374 l0 -345 31 -26 31 -26 194 0 194 0 0 -260 0 -260 -255 0 c-242 0 -256 -1
-275 -20 -20 -20 -20 -33 -20 -603 l0 -584 24 -22 c23 -21 28 -22 244 -19
l222 3 2 -1640 c3 -1583 4 -1642 22 -1689 38 -98 79 -156 156 -217 148 -119
321 -140 489 -61 66 31 169 130 205 197 59 108 56 17 56 1782 l0 1623 1910 0
1909 0 0 -1297 c1 -714 1 -1303 1 -1309 0 -5 9 -20 20 -32 l21 -22 1107 0
1107 0 5 -317 c6 -338 7 -345 60 -438 13 -22 49 -66 81 -97 161 -159 388 -182
572 -58 96 65 149 133 193 246 21 54 22 197 23 2437 l1 887 223 0 c221 0 224
0 245 23 l22 23 0 582 c0 569 0 582 -20 602 -20 20 -33 20 -1030 20 l-1010 0
0 210 0 210 329 0 330 0 20 26 c21 27 21 30 21 1036 l0 1009 -25 24 -24 25
-1444 0 -1444 0 -27 -21z m2824 -1039 l0 -920 -1355 0 -1355 0 0 220 0 220
1052 0 1052 0 23 22 c29 27 29 50 -1 84 -28 34 77 31 -1208 33 l-918 1 0 630
0 630 1355 0 1355 0 0 -920z m-3692 -402 l-3 -1073 -270 0 -270 0 -3 1073 -2
1072 275 0 275 0 -2 -1072z m-1548 502 l0 -260 -745 0 -745 0 0 260 0 260 745
0 745 0 0 -260z m-450 -660 l0 -260 -745 0 -745 0 0 260 0 260 745 0 745 0 0
-260z m450 -660 l0 -260 -745 0 -745 0 0 260 0 260 745 0 745 0 0 -260z m4540
-50 l0 -210 -655 0 -655 0 0 210 0 210 655 0 655 0 0 -210z m508 -350 l1552 0
0 -485 0 -485 -4320 0 -4320 0 0 485 0 485 2558 2 c1406 2 2652 2 2767 1 116
-2 909 -3 1763 -3z m-5947 -2432 c0 -728 1 -1458 2 -1623 1 -292 0 -302 -22
-360 -28 -70 -91 -137 -166 -175 -42 -21 -64 -25 -135 -25 -73 0 -93 4 -142
28 -56 27 -126 95 -153 147 -34 65 -35 135 -35 1737 l0 1593 325 0 325 0 1
-1322z m6219 727 l0 -595 -1062 0 -1063 0 0 595 0 595 1063 0 1062 0 0 -595z
m790 -998 c0 -1602 -1 -1672 -35 -1737 -27 -53 -97 -120 -153 -146 -48 -24
-70 -28 -142 -29 -71 0 -93 4 -135 25 -73 36 -138 105 -166 176 -28 69 -25
-133 -21 1977 l2 1327 325 0 325 0 0 -1593z m-790 -332 l0 -595 -1055 0 c-580
0 -1057 0 -1060 0 -3 0 -7 268 -8 595 l-2 595 1063 0 1062 0 0 -595z"/>
<path d="M7911 5589 c-74 -22 -148 -86 -177 -154 -24 -57 -22 -149 4 -206 41
-88 149 -159 243 -159 49 0 138 40 175 78 59 60 78 107 79 187 0 63 -4 77 -35
128 -63 105 -182 156 -289 126z m136 -154 c33 -22 56 -80 48 -122 -3 -19 -19
-48 -34 -66 -26 -28 -34 -31 -84 -31 -64 0 -99 23 -116 78 -38 114 85 207 186
141z"/>
<path d="M7917 4259 c-56 -13 -89 -33 -131 -79 -52 -58 -69 -103 -69 -180 0
-78 23 -130 82 -183 52 -47 87 -64 147 -72 181 -24 336 162 279 335 -25 76
-102 153 -174 174 -60 18 -78 18 -134 5z m133 -158 c14 -10 31 -36 39 -58 13
-35 13 -46 0 -79 -8 -22 -29 -48 -48 -61 -112 -75 -240 61 -165 175 34 51 119
63 174 23z"/>
</g>
</svg>
