<?xml version="1.0" standalone="no"?>
<!DOCTYPE svg PUBLIC "-//W3C//DTD SVG 20010904//EN"
 "http://www.w3.org/TR/2001/REC-SVG-20010904/DTD/svg10.dtd">
<svg version="1.0" xmlns="http://www.w3.org/2000/svg"
 width="1200.000000pt" height="1200.000000pt" viewBox="0 0 1200.000000 1200.000000"
 preserveAspectRatio="xMidYMid meet">

<g transform="translate(0.000000,1200.000000) scale(0.100000,-0.100000)"
fill="#000000" stroke="none">
<path d="M3063 10480 c-52 -31 -61 -60 -67 -220 -3 -80 -5 -187 -6 -237 l0
-93 -60 0 -60 0 0 -3802 c0 -2092 3 -3860 7 -3930 l6 -128 58 0 58 0 3 -246 3
-246 37 -33 c20 -19 49 -37 63 -41 36 -9 89 3 120 28 50 39 55 67 55 313 l0
225 80 0 79 0 3 -246 3 -246 37 -33 c20 -19 49 -37 63 -41 36 -9 89 3 120 28
50 39 55 67 55 313 l0 225 80 0 79 0 3 -246 3 -246 37 -33 c20 -19 49 -37 63
-41 36 -9 89 3 120 28 50 39 55 67 55 313 l0 225 80 0 79 0 3 -246 3 -246 37
-33 c20 -19 49 -37 63 -41 66 -17 147 29 165 94 5 20 10 135 10 255 l0 217 80
0 79 0 3 -244 3 -244 25 -27 c72 -78 177 -69 230 18 18 29 20 52 20 265 l0
232 80 0 80 0 0 -232 c0 -215 2 -236 20 -266 57 -94 183 -94 240 0 18 30 20
51 20 266 l0 232 80 0 80 0 0 -232 c0 -215 2 -236 20 -266 25 -40 75 -72 115
-72 43 0 96 30 122 69 22 33 23 41 23 267 l0 234 80 0 80 0 0 -234 c0 -226 1
-234 23 -267 26 -39 79 -69 122 -69 40 0 90 32 115 72 18 30 20 51 20 266 l0
232 80 0 80 0 0 -227 c0 -197 2 -233 18 -262 51 -101 183 -106 242 -9 18 30
20 51 20 266 l0 232 80 0 80 0 0 -231 c0 -258 5 -282 65 -319 66 -41 169 -15
202 50 9 18 13 93 13 263 l0 237 80 0 80 0 0 -230 c0 -258 5 -283 63 -318 44
-28 111 -29 154 -2 59 36 63 54 63 315 l0 235 80 0 80 0 0 -230 c0 -258 5
-283 63 -318 65 -41 162 -19 200 45 15 26 17 59 18 267 l0 236 79 0 80 0 0
-225 c0 -246 5 -274 55 -313 31 -25 84 -37 120 -28 14 4 43 22 63 41 l37 33 3
246 3 246 79 0 80 0 0 -225 c0 -246 5 -274 55 -313 31 -25 84 -37 120 -28 14
4 43 22 63 41 l37 33 3 246 3 246 59 0 60 0 1 118 c4 716 5 7231 1 7450 l-5
292 -58 0 -58 0 -3 246 -3 246 -37 33 c-20 19 -49 37 -63 41 -36 9 -89 -3
-120 -28 -50 -39 -55 -67 -55 -313 l0 -225 -80 0 -79 0 -3 246 -3 246 -37 33
c-20 19 -49 37 -63 41 -36 9 -89 -3 -120 -28 -50 -39 -55 -67 -55 -313 l0
-225 -80 0 -80 0 0 233 c0 214 -2 235 -20 265 -59 97 -191 92 -242 -9 -16 -29
-18 -65 -18 -261 l0 -228 -80 0 -79 0 -3 244 -3 244 -25 27 c-72 78 -177 69
-230 -18 -18 -29 -20 -52 -20 -264 l0 -233 -80 0 -79 0 -3 244 -3 244 -25 27
c-72 78 -177 69 -230 -18 -18 -29 -20 -52 -20 -264 l0 -233 -80 0 -80 0 0 233
c0 214 -2 235 -20 265 -59 97 -191 92 -242 -9 -16 -29 -18 -65 -18 -261 l0
-228 -80 0 -80 0 0 233 c0 212 -2 235 -20 264 -56 92 -177 94 -237 4 -22 -33
-23 -41 -23 -267 l0 -234 -80 0 -80 0 0 220 c0 240 -4 264 -56 311 -56 51
-135 47 -190 -8 l-34 -34 0 -244 0 -245 -80 0 -80 0 0 238 c0 217 -2 240 -20
269 -51 85 -189 85 -240 0 -18 -29 -20 -52 -20 -269 l0 -238 -80 0 -80 0 0
230 c0 258 -5 283 -63 318 -44 28 -111 29 -154 2 -59 -36 -63 -54 -63 -315 l0
-235 -80 0 -80 0 0 230 c0 258 -5 283 -63 318 -66 42 -159 22 -197 -41 -18
-29 -20 -52 -20 -269 l0 -238 -80 0 -80 0 0 230 c0 258 -5 283 -63 318 -63 40
-150 24 -196 -34 -20 -25 -21 -38 -21 -270 l0 -244 -80 0 -80 0 0 230 c0 174
-3 239 -14 264 -30 72 -138 100 -207 53 -61 -41 -64 -56 -64 -314 l0 -233 -77
0 -78 0 0 231 c0 193 -3 237 -16 265 -32 67 -135 94 -201 54z m5777 -4472 l0
-3645 -907 -6 c-1150 -9 -4700 -9 -4742 -1 l-31 6 0 3639 0 3639 688 2 c378 2
1656 5 2840 7 l2152 3 0 -3644z"/>
<path d="M3417 6353 c-3 -1589 -3 -3047 0 -3240 l6 -353 2577 0 2578 0 5 1322
c8 1883 8 4219 1 4726 l-6 432 -2578 0 -2577 0 -6 -2887z m4886 -353 l2 -2965
-2303 0 -2303 0 -6 2952 c-3 1623 -3 2959 0 2967 6 15 230 16 2308 14 l2301
-3 1 -2965z"/>
<path d="M5915 7920 c-72 -13 -132 -38 -195 -81 -70 -48 -1518 -1497 -1564
-1565 -56 -83 -79 -163 -79 -274 0 -111 23 -191 79 -274 19 -28 373 -390 787
-804 736 -737 754 -754 832 -792 149 -74 297 -75 445 -4 72 35 102 63 836 796
800 798 815 815 851 937 21 72 21 211 0 281 -36 122 -56 144 -837 925 -410
410 -769 762 -799 782 -94 63 -242 93 -356 73z m150 -291 c34 -9 144 -114 789
-757 511 -511 754 -760 767 -787 24 -51 24 -119 0 -170 -13 -27 -256 -276
-767 -787 -645 -642 -755 -748 -789 -757 -56 -15 -99 -14 -143 4 -26 11 -263
241 -780 758 -409 408 -750 754 -758 769 -21 41 -28 108 -14 158 10 41 75 108
758 793 509 510 760 755 787 768 45 21 92 24 150 8z"/>
<path d="M5880 7078 c-65 -22 -66 -23 -501 -457 l-435 -436 -22 -68 c-28 -85
-28 -149 0 -234 l22 -68 435 -436 436 -435 68 -22 c85 -28 149 -28 234 0 l68
21 435 436 436 436 22 68 c28 85 28 149 0 234 l-22 68 -436 436 -435 435 -68
22 c-84 27 -153 27 -237 0z m537 -660 c308 -308 393 -398 393 -418 0 -36 -773
-810 -810 -810 -36 0 -810 773 -810 810 0 36 773 810 810 810 19 0 110 -85
417 -392z"/>
</g>
</svg>
